<svg enable-background="new 0 0 36 36" height="512" viewBox="0 0 36 36" width="512" xmlns="http://www.w3.org/2000/svg"><path d="m34.904 20.355c-3.782-5.791-3.38-11.727-5.203-14.518s-7.256-7.603-20.093.782-9.572 17.5-7.566 20.569c9.388 14.372 39.561 3.423 32.862-6.833z" fill="#efefef"/><path d="m27.25 25.25h-13.75l-6.75-7.25 6.75-7.25h13.75c1.105 0 2 .895 2 2v10.5c0 1.105-.895 2-2 2z" fill="#f3f3f1"/><path d="m16 10.75h-2.5l-6.75 7.25 6.75 7.25h2.5l-6.75-7.25z" fill="#d5dbe1"/><g fill="#a4afc1"><path d="m8.625 6.625h2v1h-2z"/><path d="m2.875 6.625h2v1h-2z"/><path d="m6.375 3.125h1v2h-1z"/><path d="m6.375 8.875h1v2h-1z"/><path d="m31 9.75c-.827 0-1.5-.673-1.5-1.5s.673-1.5 1.5-1.5 1.5.673 1.5 1.5-.673 1.5-1.5 1.5zm0-2c-.275 0-.5.224-.5.5s.225.5.5.5.5-.224.5-.5-.225-.5-.5-.5z"/></g><path d="m27.25 26h-13.75c-.208 0-.407-.086-.549-.239l-6.75-7.25c-.269-.288-.269-.734 0-1.022l6.75-7.25c.142-.153.341-.239.549-.239h13.75c1.517 0 2.75 1.233 2.75 2.75v10.5c0 1.517-1.233 2.75-2.75 2.75zm-13.424-1.5h13.424c.689 0 1.25-.561 1.25-1.25v-10.5c0-.689-.561-1.25-1.25-1.25h-13.424l-6.052 6.5z"/><path d="m20.75 13.224h1.5v9.552h-1.5z" transform="matrix(.733 -.681 .681 .733 -6.503 19.439)"/><path d="m16.724 17.25h9.552v1.5h-9.552z" transform="matrix(.68 -.733 .733 .68 -6.319 21.515)"/></svg>